<svg width="102" height="84" viewBox="0 0 102 84" fill="none" xmlns="http://www.w3.org/2000/svg">
<path d="M55.0929 52.105C56.3192 52.105 57.267 51.1579 57.267 49.964C57.267 48.77 56.3192 47.7916 55.0929 47.7916C53.8667 47.7916 52.9234 48.7386 52.9234 49.964C52.9234 51.1893 53.8712 52.105 55.0929 52.105Z" fill="#004E87"/>
<path d="M98.6947 54.3896V53.4695C98.6947 49.6273 97.2484 46.6515 92.6218 46.6515C87.9953 46.6515 86.495 49.5735 86.495 53.4695V54.3896H41.1055V57.3969H53.7499V62.1546C52.9144 60.8171 51.4366 59.9014 49.294 59.9014C45.6737 59.9014 43.3334 62.4913 43.3334 66.3558C43.3334 70.2204 45.6153 72.8417 49.1548 72.8417C51.3827 72.8417 52.9144 71.8946 53.7499 70.4763L53.7903 76.7377H54.6258C56.2114 76.7377 56.993 77.7117 56.993 78.8787C56.993 80.3554 55.879 81.2172 54.0688 81.2172C51.9801 81.2172 50.3631 80.2162 50.4484 77.7925H47.2727C47.1874 82.2989 50.5877 84 54.1497 84C57.7116 84 60.0519 82.0789 60.0519 78.9056C60.0519 76.7556 59.0861 75.1173 57.1996 74.3722V66.6072C57.1996 64.7714 58.1743 62.9895 60.4022 62.9895C62.2663 62.9895 63.5779 64.3809 63.5779 66.3558C63.5779 68.4699 62.2394 69.6953 60.4876 69.6953C60.2091 69.6953 59.8767 69.6683 59.6251 69.5831V72.4198C60.236 72.5589 60.793 72.6128 61.4623 72.6128C64.7772 72.6128 67.2252 70.3012 67.2252 66.2661C67.2252 62.6484 65.0243 59.8925 61.5162 59.8925C59.4275 59.8925 57.9811 60.8395 57.1996 62.204V57.3879H86.495V61.2839H79.0027V65.7903C79.0027 67.5722 78.1133 68.7123 76.5502 68.7123C74.9871 68.7123 74.183 67.5722 74.183 65.7903V61.2839H70.5357V65.8756C70.5357 69.3811 72.6244 71.8587 76.5502 71.8587C80.2559 71.8587 82.5108 69.3811 82.5108 65.8756V64.345H86.495V74.9737H90.0884V57.3924H95.1013V74.9782H98.6947V57.3924H101.785V54.3851H98.6947V54.3896ZM50.3496 69.8299C48.4002 69.8299 46.9808 68.4924 46.9808 66.3783C46.9808 64.2642 48.4855 62.9581 50.3766 62.9581C52.6584 62.9581 53.7454 64.6817 53.7454 66.3783C53.7454 68.0749 52.6314 69.8299 50.3496 69.8299ZM95.2136 54.3896H89.9761V53.2765C89.9761 51.692 90.3939 49.6857 92.6218 49.6857C94.8497 49.6857 95.2136 51.6875 95.2136 53.2765V54.3896Z" fill="#004E87"/>
<g clip-path="url(#clip0_1_3)">
<path d="M43.0531 21.0421C43.0531 26.3304 41.0859 31.1586 37.8432 34.8386C33.2498 34.036 29.7591 30.0266 29.7591 25.2016C29.7591 19.7959 34.1404 15.4146 39.5461 15.4146C40.5379 15.4146 41.497 15.5614 42.4007 15.8387C42.828 17.5025 43.0531 19.2446 43.0531 21.0421Z" fill="#004E87"/>
<path d="M17.8515 25.2016C17.8515 31.2761 20.3538 36.7666 24.3762 40.7042L13.7867 61.0547L8.65173 58.3829L13.9335 40.2312C6.50185 37.0341 1.29515 29.6482 1.29515 21.0421C1.29515 9.50973 10.6418 0.163116 22.1741 0.163116C26.7447 0.163116 30.9694 1.63117 34.4079 4.12034C24.9047 6.42681 17.8515 14.9905 17.8515 25.2016Z" fill="#004E87"/>
<path d="M43.0531 83.6791H1.29515L3.92786 74.6293L11.9434 78.7986L11.95 78.7856L17.8613 81.8652L33.6804 51.4602L43.0531 83.6791Z" fill="#004E87"/>
<path d="M6.91616 68.5027L6.11036 70.0523L5.36981 69.6673L5.86895 67.9578L6.91616 68.5027Z" fill="#004E87"/>
<path d="M8.8018 64.8749L7.85572 66.6953L6.44965 65.9613L7.03361 63.9549L8.8018 64.8749Z" fill="#004E87"/>
<path d="M5.36981 69.6673L3.92786 74.6293L0.218578 72.698L2.55441 68.2025L5.36981 69.6673Z" fill="#FFD700"/>
<path d="M6.44965 65.9613L5.86895 67.9578L3.27539 66.6072L4.21821 64.7999L6.44965 65.9613Z" fill="#FFD700"/>
<path d="M8.65173 58.3829L7.03361 63.9549L5.21648 63.0121L7.84267 57.962L8.65173 58.3829Z" fill="#FFD700"/>
<path d="M29.7591 25.2016C29.7591 30.0266 33.2498 34.036 37.8432 34.8385C35.814 37.145 33.2792 38.998 30.4148 40.2312L33.6804 51.4602L17.8613 81.8652L11.95 78.7855L11.9434 78.7986L3.92786 74.6293L5.36982 69.6673L6.11037 70.0523L6.91617 68.5026L5.86895 67.9578L6.44965 65.9613L7.85572 66.6953L8.8018 64.8749L7.03361 63.9549L8.65173 58.3829L13.7867 61.0547L24.3762 40.7042C20.3538 36.7666 17.8515 31.2761 17.8515 25.2016C17.8515 14.9905 24.9047 6.42681 34.4079 4.12034C38.2934 6.93248 41.174 11.0561 42.4007 15.8387C41.497 15.5614 40.5379 15.4146 39.5461 15.4146C34.1404 15.4146 29.7591 19.7959 29.7591 25.2016Z" fill="white"/>
<path d="M61.2407 25.2016C61.2407 37.1842 51.5287 46.8962 39.5461 46.8962C38.4043 46.8962 37.2853 46.8081 36.1892 46.6384L33.6804 51.4602L30.4148 40.2312C33.2791 38.998 35.814 37.145 37.8432 34.8386C38.3945 34.9364 38.9654 34.9886 39.5461 34.9886C44.9518 34.9886 49.3331 30.6073 49.3331 25.2016C49.3331 20.7876 46.4133 17.0588 42.4007 15.8387C41.174 11.0561 38.2934 6.93248 34.4079 4.12034C36.0554 3.71907 37.7747 3.50702 39.5461 3.50702C51.5287 3.50702 61.2407 13.219 61.2407 25.2016Z" fill="#FFD700"/>
</g>
<defs>
<clipPath id="clip0_1_3">
<rect width="61.4038" height="83.8422" fill="white"/>
</clipPath>
</defs>
</svg>
